<?xml version="1.0" encoding="utf-8"?>
<!-- Generator: Adobe Illustrator 23.0.3, SVG Export Plug-In . SVG Version: 6.00 Build 0)  -->
<svg version="1.1" id="Layer_1" xmlns="http://www.w3.org/2000/svg" xmlns:xlink="http://www.w3.org/1999/xlink" x="0px" y="0px"
	 viewBox="0 0 845.7 159.6" style="enable-background:new 0 0 845.7 159.6;" xml:space="preserve">
<style type="text/css">
	.st0{fill:#FFFFFF;}
</style>
<title>bdc</title>
<g>
	<path class="st0" d="M127.2,47.5C127.2,21.3,106,0,79.8,0H0l30.3,30.3h49.4c9.5,0,17.1,7.7,17.1,17.1s-7.7,17.1-17.1,17.1l0,0H30.3
		V30.3H0v129.2h79.8c26.2,0,47.5-21.2,47.5-47.4c0-12-4.5-23.6-12.7-32.3C122.7,71,127.2,59.5,127.2,47.5z M79.8,129.2H30.3V94.9
		h49.4c9.5,0,17.1,7.7,17.1,17.1S89.2,129.2,79.8,129.2L79.8,129.2z"/>
	<path class="st0" d="M398.9,64.6V0h-47.5c-44.1-0.5-80.2,34.8-80.7,78.9s34.8,80.2,78.9,80.7c0.6,0,1.2,0,1.8,0h47.5l-30.3-30.3
		h-17.1c-27.3,0.4-49.8-21.4-50.1-48.7s21.4-49.8,48.7-50.1c0.5,0,0.9,0,1.4,0h17.1v34.3h30.3V64.6z"/>
	<path class="st0" d="M136.5,94.9v64.6H184c44.1-0.5,79.4-36.6,78.9-80.7c-0.6-43.3-35.6-78.3-79-78.8h-47.5l30.3,30.3h17.1
		c27.3,0.4,49.1,22.8,48.7,50.1c-0.4,26.8-22,48.4-48.7,48.7h-17.1V94.9H136.5z"/>
</g>
<g>
	<path class="st0" d="M425.7,0h23.7c10.7,0,15,4.8,15,9.9c0,4.6-3.3,8.1-8.5,9.4v0.1c6.2,0.6,10.2,4.4,10.2,9.5
		c0,5.5-3.9,11.2-16.6,11.2h-23.7V0H425.7z M437.1,16.4h7.3c5,0,8-1.4,8-4.5c0-3.3-2.5-4.5-7-4.5h-8.2L437.1,16.4L437.1,16.4z
		 M437.1,32.7h10.5c3.7,0,6.5-1,6.5-4.6c0-3.3-3.1-4.6-6-4.6h-11V32.7z"/>
	<path class="st0" d="M485.8,7.8h-11.7V0h11.7V7.8z M474.6,12.2h10.7v27.9h-10.7V12.2z"/>
	<path class="st0" d="M494.7,18c0-1.8-0.1-3.8-0.2-5.7h10.4c0.1,1.7,0.2,3.3,0.2,5h0.1c2.8-3.7,7-6.1,11.9-6.1
		c10.2,0,14,5.8,14,13.1v15.9h-10.7V25.9c0-4.5-1.9-7.6-6.8-7.6c-4.4,0-8.2,3.4-8.2,9.6v12.3h-10.7L494.7,18L494.7,18z"/>
	<path class="st0" d="M565.7,34.1L565.7,34.1c-2.6,4-7.8,5.7-12.6,5.7c-9,0-15.2-6.3-15.2-14.3c0-8.8,6.3-14.3,15.4-14.3
		c5.6,0,9.8,1.9,12.6,5.5h0.1c0-1.7,0.1-3.2,0.2-4.5h10.4c-0.1,1.1-0.2,2.8-0.2,4.5V36c0,13.1-8.3,16-20.1,16
		c-15.2,0-16.7-5.2-17.1-9.9h11.4c0.3,1.7,1.1,2.6,2.2,3.1c1.2,0.6,2.6,0.7,4.1,0.7c6,0,8.9-2.1,8.9-9.5v-2.3H565.7z M557.4,33
		c5.3,0,8.3-3.1,8.3-7.5c0-4.7-3.7-7.5-8.5-7.5c-5.2,0-8,3.2-8,7.5C549.3,29.8,552.3,33,557.4,33z"/>
	<path class="st0" d="M585.4,0h10.7v17c3.5-4.1,6.6-5.8,11.8-5.8c10,0,13.9,5.8,13.9,13.1v15.9h-10.7V25.9c0-4.5-1.9-7.6-6.8-7.6
		c-4.4,0-8.2,3.4-8.2,9.6v12.3h-10.7V0z"/>
	<path class="st0" d="M630,20.5c0.6-7.3,8.7-9.3,16.1-9.3c10.9,0,17.1,2.6,17.1,12.1V34c0,2.1,0.1,4.2,0.2,6.2H653
		c-0.1-0.9-0.2-3-0.2-4.5h-0.1c-2.6,4.2-7.3,5.6-12.1,5.6c-8,0-12.6-3.2-12.6-9.1c0-6.6,6.2-9.6,16.7-9.6h7.8c0-4.5-2.1-5.6-6.3-5.6
		c-4,0-5.2,1.6-5.2,3.5C641,20.5,630,20.5,630,20.5z M648.1,28c-7.2,0-8.7,1.9-8.7,4.2c0,1.7,1.6,2.9,4.6,2.9c7,0,8.5-4.2,8.5-7.1
		C652.5,28,648.1,28,648.1,28z"/>
	<path class="st0" d="M672,18c0-1.8-0.1-3.8-0.2-5.7h10.4c0.1,1.7,0.2,3.3,0.2,5h0.1c2.7-4,6.2-6.1,11.5-6.1c4.2,0,8.1,1.9,10,6.3
		c2.3-3.7,6.2-6.3,11.8-6.3c6,0,13.2,2.2,13.2,13.1v15.9h-10.7V25.5c0-4.2-1.6-7.2-6-7.2c-3.6,0-6.5,2.9-6.5,7v14.9h-10.7V25.9
		c0-4.2-0.9-7.6-5.8-7.6c-3.7,0-6.7,3.4-6.7,8.5v13.4H672V18z"/>
	<path class="st0" d="M734.4,12.2h6.8V6.6l10.7-3.9v9.6h9V19h-9v8.7c0,3.9,0.5,6,4.8,6c1,0,2.6-0.1,4.2-0.3v6.8
		c-1,0.2-3.8,0.7-7.2,0.7c-8.2,0-12.5-3.2-12.5-10V19h-6.8V12.2z"/>
	<path class="st0" d="M785.1,11.2c15.8,0,20.3,8.4,20.3,15s-4.5,15-20.3,15c-15.7,0-20.3-8.4-20.3-15S769.3,11.2,785.1,11.2z
		 M785.1,35.1c5,0,8.9-3.2,8.9-8.9s-3.9-8.9-8.9-8.9s-8.9,3.2-8.9,8.9C776.2,31.9,780.1,35.1,785.1,35.1z"/>
	<path class="st0" d="M809.3,18c0-1.8-0.1-3.8-0.2-5.7h10.4c0.1,1.7,0.2,3.3,0.2,5h0.1c2.8-3.7,7-6.1,11.9-6.1
		c10.2,0,14,5.8,14,13.1v15.9H835V25.9c0-4.5-1.9-7.6-6.8-7.6c-4.4,0-8.2,3.4-8.2,9.6v12.3h-10.7V18z"/>
	<path class="st0" d="M425.7,59.2H448c5.3,0,10.4,0.7,14.5,3.3c5,3.3,8.3,9.1,8.3,16.4c0,7.1-2.6,12.4-6.4,15.6
		c-3.5,2.9-9,4.8-17.2,4.8h-21.5L425.7,59.2L425.7,59.2z M437.4,91.5h5.3c9.5,0,16.1-1.4,16.1-12.5c0-9.5-5.5-12.1-14.1-12.1h-7.2
		L437.4,91.5L437.4,91.5z"/>
	<path class="st0" d="M487.2,88c0.2,4.3,2.8,6.6,7.3,6.6c4.7,0,5.5-1.9,6.1-3.8H512c-2.2,8.8-9.9,9.6-17.6,9.6
		c-9.7,0-18.1-3.6-18.1-14.6c0-10.8,8.4-15.5,18-15.5c13.6,0,18.3,6.7,18.4,17.6h-25.5L487.2,88L487.2,88z M501.2,82.2
		c-0.1-4.6-3.1-6.1-6.9-6.1c-5,0-6.4,3.2-6.9,6.1H501.2z"/>
	<path class="st0" d="M528.3,90.6c0,1.5,0.5,2.5,1.3,3.2s2.1,0.8,3.5,0.8c2.2,0,5.6-0.3,5.6-3.1c0-1.9-2.5-2.6-4.7-2.9l-7.4-1.2
		c-5.3-0.8-8.5-3.4-8.5-7.7c0-8,9.1-9.3,15.2-9.3c12.1,0,15.4,3.5,15.6,9.3h-10.7c-0.2-1.5-0.7-2.4-1.4-2.8
		c-0.8-0.5-2.4-0.7-3.8-0.7c-1.7,0-4,0.7-4,2.4c0,2,2.6,2.5,4.9,2.9l7.2,1.2c6.1,1,8.4,3.7,8.4,8.3c0,8.5-10.8,9.4-17,9.4
		c-14,0-15.1-5.7-15.5-9.8C517,90.6,528.3,90.6,528.3,90.6z"/>
	<path class="st0" d="M568.2,66.9h-11.7v-7.8h11.7V66.9z M557,71.4h10.7v27.9H557V71.4z"/>
	<path class="st0" d="M602.8,93.3L602.8,93.3c-2.6,4-7.8,5.7-12.6,5.7c-9,0-15.2-6.3-15.2-14.3c0-8.8,6.3-14.3,15.4-14.3
		c5.6,0,9.8,1.9,12.6,5.5h0.1c0-1.7,0.1-3.2,0.2-4.5h10.4c-0.1,1.1-0.2,2.8-0.2,4.5v19.3c0,13.1-8.3,16-20.1,16
		c-15.2,0-16.7-5.2-17.1-9.9h11.4c0.3,1.7,1.1,2.6,2.2,3.1c1.2,0.6,2.6,0.7,4.1,0.7c6,0,8.9-2.1,8.9-9.5v-2.3L602.8,93.3L602.8,93.3
		z M594.5,92.2c5.3,0,8.3-3.1,8.3-7.5c0-4.7-3.7-7.5-8.5-7.5c-5.2,0-8,3.2-8,7.5C586.4,88.9,589.4,92.2,594.5,92.2z"/>
	<path class="st0" d="M622.5,77.1c0-1.8-0.1-3.8-0.2-5.7h10.4c0.1,1.7,0.2,3.3,0.2,5h0.1c2.8-3.7,7-6.1,11.9-6.1
		c10.2,0,14,5.8,14,13.1v15.9h-10.7V85c0-4.5-1.9-7.6-6.8-7.6c-4.4,0-8.2,3.4-8.2,9.6v12.3h-10.7V77.1z"/>
	<path class="st0" d="M455.1,131.5c-0.6-4.5-4.2-6-8.7-6c-7.6,0-11.3,5.3-11.3,12.7c0,7.1,3.1,13.1,11,13.1c4.5,0,8.5-1.6,8.9-6.5
		h12.4c-0.5,11.9-10.3,14.7-22.4,14.7c-12,0-21.8-6.1-21.8-21.1c0-15.1,9.3-21.2,23.7-21.2c10.2,0,20.1,3.6,20.3,14.2h-12.1V131.5z"
		/>
	<path class="st0" d="M492.3,129.5c15.8,0,20.3,8.4,20.3,15s-4.5,15-20.3,15c-15.7,0-20.3-8.4-20.3-15
		C472.1,137.9,476.6,129.5,492.3,129.5z M492.3,153.4c5,0,8.9-3.2,8.9-8.9s-3.9-8.9-8.9-8.9s-8.9,3.2-8.9,8.9
		C483.4,150.3,487.3,153.4,492.3,153.4z"/>
	<path class="st0" d="M520,118.3h10.7v40.2H520V118.3z"/>
	<path class="st0" d="M540.6,118.3h10.7v40.2h-10.7V118.3z"/>
	<path class="st0" d="M569.7,147.1c0.2,4.3,2.8,6.6,7.3,6.6c4.7,0,5.5-1.9,6.1-3.8h11.4c-2.2,8.8-9.9,9.6-17.6,9.6
		c-9.7,0-18.1-3.6-18.1-14.6c0-10.8,8.4-15.5,18-15.5c13.6,0,18.3,6.7,18.4,17.6L569.7,147.1L569.7,147.1z M583.6,141.4
		c-0.1-4.6-3.1-6.1-6.9-6.1c-5,0-6.4,3.2-6.9,6.1H583.6z"/>
	<path class="st0" d="M636.2,148c-1,9.1-10,11.5-18.3,11.5s-18.1-3.8-18.1-14.9c0-11.2,9.1-15.1,18.8-15.1c7.6,0,16.2,2.3,17.2,11
		h-11c-0.6-3.5-2.7-4.8-6.2-4.8c-4.8,0-7.5,3.7-7.5,8.8c0,4.9,2.2,9,7.5,9c3.5,0,6.1-1.8,6.2-5.4h11.4L636.2,148L636.2,148z"/>
	<path class="st0" d="M639.6,130.6h6.8v-5.7l10.7-3.9v9.6h9v6.8h-9v8.7c0,3.9,0.5,6,4.8,6c1,0,2.6-0.1,4.2-0.3v6.8
		c-1,0.2-3.8,0.7-7.2,0.7c-8.2,0-12.5-3.2-12.5-10v-11.9h-6.8V130.6z"/>
	<path class="st0" d="M683.7,126.1H672v-7.8h11.7V126.1z M672.5,130.6h10.7v27.9h-10.7V130.6z"/>
	<path class="st0" d="M715.4,158.5h-13.2L689,130.6h12l8.5,21.8l8.7-21.8h10.4L715.4,158.5z"/>
	<path class="st0" d="M742.9,147.1c0.2,4.3,2.8,6.6,7.3,6.6c4.7,0,5.5-1.9,6.1-3.8h11.4c-2.2,8.8-9.9,9.6-17.6,9.6
		c-9.7,0-18.1-3.6-18.1-14.6c0-10.8,8.4-15.5,18-15.5c13.6,0,18.3,6.7,18.4,17.6L742.9,147.1L742.9,147.1z M756.8,141.4
		c-0.1-4.6-3.1-6.1-6.9-6.1c-5,0-6.4,3.2-6.9,6.1H756.8z"/>
</g>
</svg>
