<svg id="Layer_1" data-name="Layer 1" xmlns="http://www.w3.org/2000/svg" viewBox="0 0 398.86 159.55"><title>bdc</title><path d="M127.24,47.47A47.52,47.52,0,0,0,79.77,0H0L30.33,30.33H79.77a17.14,17.14,0,1,1,0,34.28H30.33V30.33H0V159.55H79.77a47.45,47.45,0,0,0,34.75-79.78A47.27,47.27,0,0,0,127.24,47.47ZM79.77,129.22H30.33V94.94H79.77a17.14,17.14,0,0,1,0,34.28Z"/><path d="M398.86,64.61V0H351.4a79.78,79.78,0,1,0,0,159.55h47.46l-30.32-30.33H351.4a49.45,49.45,0,1,1,0-98.89h17.14V64.61Z"/><path d="M136.47,94.94v64.61h47.47A79.78,79.78,0,0,0,183.94,0H136.47L166.8,30.33h17.14a49.45,49.45,0,0,1,0,98.89H166.8V94.94Z"/></svg>