<?xml version="1.0" encoding="utf-8"?>
<!-- Generator: Adobe Illustrator 23.0.1, SVG Export Plug-In . SVG Version: 6.00 Build 0)  -->
<svg version="1.1" id="Layer_1" xmlns="http://www.w3.org/2000/svg" xmlns:xlink="http://www.w3.org/1999/xlink" x="0px" y="0px"
	 viewBox="0 0 100 97.3" style="enable-background:new 0 0 100 97.3;" xml:space="preserve">
<path d="M96.9,87L74.5,64.7c11.7-15.8,10.3-38.6-3.9-52.8C62.9,4.2,52.8,0,41.9,0c-10.8,0-21,4.2-28.7,11.9
	C5.6,19.5,1.4,29.7,1.4,40.6c0,10.8,4.2,21,11.9,28.7c7.7,7.7,17.8,11.9,28.7,11.9c8.8,0,17.2-2.8,24.1-8l22.4,22.4
	c1.1,1.1,2.6,1.8,4.2,1.8c1.6,0,3.1-0.6,4.2-1.8c1.1-1.1,1.8-2.6,1.8-4.2S98,88.2,96.9,87z M41.9,12c7.6,0,14.8,3,20.2,8.4
	c5.4,5.4,8.4,12.6,8.4,20.2s-3,14.8-8.4,20.2c-5.4,5.4-12.6,8.4-20.2,8.4c-7.6,0-14.8-3-20.2-8.4c-5.4-5.4-8.4-12.6-8.4-20.2
	c0-7.6,3-14.8,8.4-20.2C27.1,15,34.3,12,41.9,12z"/>
</svg>
